<svg width="32" height="32" viewBox="0 0 32 32" fill="none" xmlns="http://www.w3.org/2000/svg">
<path d="M25.2404 24.2377C26.1664 25.0637 26.2567 26.5 25.2993 27.2893C23.6512 28.6483 21.7192 29.6373 19.6338 30.1773C16.82 30.9057 13.8534 30.7834 11.1091 29.826C8.36481 28.8684 5.96609 27.1186 4.21628 24.7978C2.46647 22.4769 1.44415 19.6894 1.27862 16.7875C1.11309 13.8856 1.81177 10.9999 3.2863 8.49512C4.76085 5.99035 6.94503 3.97911 9.56263 2.71568C12.1802 1.45227 15.1137 0.993431 17.9921 1.3972C20.1253 1.69644 22.1572 2.4595 23.9492 3.62213C24.9902 4.2975 25.0638 5.73471 24.2377 6.66067C23.4118 7.58662 21.999 7.64131 20.9151 7.03753C19.8217 6.42855 18.62 6.02278 17.3679 5.84715C15.3696 5.56683 13.3331 5.88536 11.5159 6.76248C9.69864 7.63958 8.18232 9.03587 7.15863 10.7747C6.13497 12.5136 5.64992 14.517 5.76484 16.5316C5.87976 18.5461 6.58948 20.4813 7.80426 22.0926C9.01902 23.7037 10.6843 24.9185 12.5895 25.5833C14.4947 26.2481 16.5542 26.333 18.5077 25.8271C19.7315 25.5103 20.8794 24.9705 21.8964 24.2412C22.9048 23.5179 24.3145 23.4118 25.2404 24.2377Z" fill="#DDDDDD"/>
<path fill-rule="evenodd" clip-rule="evenodd" d="M14.572 8.28891C15.3728 7.82687 16.3592 7.82687 17.1601 8.28891L21.7844 10.9568C22.5859 11.4192 23.08 12.2744 23.08 13.1998V15.8015V18.5323C23.08 19.4577 22.5859 20.3128 21.7844 20.7752L17.1601 23.4431C16.3592 23.9051 15.3728 23.9051 14.572 23.4431L9.94768 20.7752C9.14605 20.3128 8.65216 19.4577 8.65216 18.5323V13.1998C8.65216 12.2744 9.14605 11.4192 9.94768 10.9568L14.572 8.28891ZM21.5484 14.2093C21.5484 13.211 20.9746 12.3016 20.0736 11.8719L16.6598 10.2438C16.2915 10.0681 15.866 10.3367 15.866 10.7447V15.9305V21.2456C15.866 21.669 16.3209 21.9363 16.6907 21.7306L20.2179 19.7681C21.0392 19.311 21.5484 18.445 21.5484 17.5052V14.2093ZM11.4267 12.5935C11.4267 12.1287 10.9515 11.8153 10.5243 11.9984C10.2863 12.1005 10.1319 12.3345 10.1319 12.5935V18.8197C10.1319 19.052 10.2564 19.2666 10.4581 19.3819C10.8897 19.6286 11.4267 19.3169 11.4267 18.8197V17.9932C11.4267 17.6356 11.7166 17.3458 12.0741 17.3458C12.4317 17.3458 12.7215 17.6356 12.7215 17.9932V20.4275C12.7215 20.6948 12.8657 20.9413 13.0987 21.0723C13.5919 21.3498 14.2013 20.9933 14.2013 20.4275V11.6518C14.2013 11.0707 13.5621 10.7164 13.0693 11.0244C12.8529 11.1596 12.7215 11.3967 12.7215 11.6518V14.6637C12.7215 15.0213 12.4317 15.3111 12.0741 15.3111C11.7166 15.3111 11.4267 15.0213 11.4267 14.6637V12.5935Z" fill="#CA9C34"/>
</svg>
